<?xml version="1.0" standalone="no"?>
<!DOCTYPE svg PUBLIC "-//W3C//DTD SVG 20010904//EN"
 "http://www.w3.org/TR/2001/REC-SVG-20010904/DTD/svg10.dtd">
<svg version="1.0" xmlns="http://www.w3.org/2000/svg"
 width="313.000000pt" height="302.000000pt" viewBox="0 0 313.000000 302.000000"
 preserveAspectRatio="xMidYMid meet">

<g transform="translate(0.000000,302.000000) scale(0.100000,-0.100000)"
fill="#000000" stroke="none">
<path d="M586 2682 c-306 -177 -487 -287 -500 -305 -45 -61 -38 -81 177 -452
108 -187 197 -342 197 -345 0 -3 -60 -39 -132 -80 -154 -87 -189 -115 -217
-174 -24 -48 -27 -131 -8 -182 25 -65 513 -897 546 -929 44 -45 118 -69 185
-61 42 5 101 34 341 173 159 92 318 182 352 199 l62 32 78 -19 c43 -11 206
-54 363 -96 248 -66 292 -75 345 -70 73 5 130 38 169 98 20 29 78 231 232 807
229 852 224 828 168 919 -17 28 -48 59 -74 75 -33 19 -236 78 -760 218 -393
105 -729 195 -746 201 -26 8 -44 30 -98 123 -42 69 -78 119 -95 129 -66 39
-71 37 -585 -261z m1572 -1134 l-3 -793 -792 -3 -793 -2 0 795 0 795 795 0
795 0 -2 -792z"/>
<path d="M640 1545 l0 -725 720 0 720 0 0 725 0 725 -720 0 -720 0 0 -725z
m1320 0 l0 -595 -595 0 -595 0 0 595 0 595 595 0 595 0 0 -595z"/>
<path d="M855 2055 l-25 -24 0 -486 c0 -472 1 -486 20 -505 19 -19 33 -20 510
-20 477 0 491 1 510 20 19 19 20 33 20 509 l0 490 -26 20 c-26 21 -36 21 -506
21 l-479 0 -24 -25z m515 -238 l0 -93 52 -22 52 -22 46 45 c25 25 49 42 53 38
4 -4 -13 -28 -38 -53 l-46 -47 15 -34 c8 -19 17 -42 20 -51 5 -16 19 -18 101
-18 57 0 95 -4 95 -10 0 -6 -38 -10 -95 -10 -82 0 -96 -2 -101 -17 -3 -10 -12
-33 -20 -52 l-15 -34 46 -47 c25 -25 42 -49 38 -53 -4 -4 -28 13 -53 38 l-46
45 -52 -22 -52 -22 0 -93 c0 -55 -4 -93 -10 -93 -6 0 -10 38 -10 95 l0 95 -27
6 c-16 4 -39 13 -52 21 -22 14 -26 13 -70 -31 -26 -26 -50 -43 -54 -39 -4 4
13 27 38 53 l45 46 -20 39 c-11 22 -20 45 -20 52 0 10 -24 13 -95 13 -57 0
-95 4 -95 10 0 6 38 10 95 10 71 0 95 3 95 13 0 7 9 30 20 52 l20 39 -45 46
c-25 26 -42 49 -38 53 4 4 27 -13 53 -38 l46 -45 39 20 c22 11 45 20 52 20 10
0 13 24 13 95 0 57 4 95 10 95 6 0 10 -38 10 -93z"/>
<path d="M1283 1670 c-86 -52 -86 -188 0 -240 65 -40 155 -16 197 52 26 43 25
91 -2 139 -37 66 -129 90 -195 49z m132 -65 c16 -15 25 -36 25 -55 0 -71 -91
-107 -140 -55 -72 77 41 185 115 110z"/>
<path d="M1322 1594 c-44 -30 -16 -104 39 -104 26 0 61 49 53 74 -13 44 -53
57 -92 30z"/>
</g>
</svg>
